# xmcd
#
# Track frame offsets:
#	150
#	17769
#	33913
#	48541
#	66184
#	79892
#	96404
#	115877
#	131696
#	149507
#	167603
#	182463
#	194865
#	219487
#
# Disc length: 3091 seconds
#
# Revision: 1
# Processed by: cddbd v1.4PL0 Copyright (c) Steve Scherf et al.
# Submitted via: audiograbber 1.81.03
#
DISCID=cf0c110e
DTITLE=Various Artist - Apres_Ski_Party Vol2
DYEAR=1900
DGENRE=
TTITLE0=Hellymaus-Que Sera Sera
TTITLE1=Stadlrock-Do Wah Diddy Diddy
TTITLE2=Die Partykracher-Country Roads
TTITLE3=Hellymaus-20 CM
TTITLE4=Partysanen-Hebt Die Ärsche In Die Höh
TTITLE5=Der Macho-Es Ist Geil Ein Arschloch Zu Sein
TTITLE6=Stadlrock-My Bonnie Is Over The Ocean
TTITLE7=Marion&Die Partyband-Er Hat Ein Knallrotes Gummiboot
TTITLE8=Stadlrock-Pistensau
TTITLE9=Saft-Säcke-Fressen Und Saufen
TTITLE10=Seer-3Täg
TTITLE11=Klostertaler-Marmor Stein Und Eisen Bricht
TTITLE12=Schüzenjäger-Rock-Potpourri
TTITLE13=Gletscher Fezzzer-Und Tschüss
EXTD=
EXTT0=
EXTT1=
EXTT2=
EXTT3=
EXTT4=
EXTT5=
EXTT6=
EXTT7=
EXTT8=
EXTT9=
EXTT10=
EXTT11=
EXTT12=
EXTT13=
PLAYORDER=
